<svg width="73" height="72" viewBox="0 0 73 72" fill="none" xmlns="http://www.w3.org/2000/svg">
<rect x="0.332031" width="72" height="72" rx="8" fill="#E8EDF2"/>
<path d="M49.6667 34.7823V36.0089C49.665 38.8842 48.734 41.6818 47.0124 43.9847C45.2909 46.2876 42.871 47.9722 40.1138 48.7875C37.3566 49.6027 34.4097 49.5048 31.7126 48.5084C29.0156 47.512 26.7129 45.6704 25.1479 43.2584C23.583 40.8463 22.8397 37.993 23.0289 35.124C23.2181 32.255 24.3296 29.524 26.1977 27.3384C28.0658 25.1527 30.5904 23.6294 33.3949 22.9958C36.1995 22.3621 39.1337 22.652 41.76 23.8223M49.6667 25.3346L36.3333 38.6813L32.3333 34.6813" stroke="#1A4A7A" stroke-width="2" stroke-linecap="round" stroke-linejoin="round"/>
</svg>
