<svg width="20" height="16" viewBox="0 0 20 16" fill="none" xmlns="http://www.w3.org/2000/svg">
<path d="M18.3485 4.86923V2.38092C18.3485 2.2204 18.2816 2.07324 18.1478 1.93945C18.0141 1.80568 17.8669 1.73879 17.7064 1.73879H15.2181V0.695312H17.7064C18.1866 0.695312 18.5876 0.856182 18.9094 1.17792C19.2311 1.49966 19.392 1.90066 19.392 2.38092V4.86923H18.3485ZM0.609375 4.86923V2.38092C0.609375 1.90066 0.770245 1.49966 1.09198 1.17792C1.41372 0.856182 1.81472 0.695312 2.29498 0.695312H4.78329V1.73879H2.29498C2.13446 1.73879 1.98731 1.80568 1.85351 1.93945C1.71974 2.07324 1.65285 2.2204 1.65285 2.38092V4.86923H0.609375ZM15.2181 15.304V14.2605H17.7064C17.8669 14.2605 18.0141 14.1936 18.1478 14.0599C18.2816 13.9261 18.3485 13.7789 18.3485 13.6184V11.1301H19.392V13.6184C19.392 14.0987 19.2311 14.4997 18.9094 14.8214C18.5876 15.1431 18.1866 15.304 17.7064 15.304H15.2181ZM2.29498 15.304C1.81472 15.304 1.41372 15.1431 1.09198 14.8214C0.770245 14.4997 0.609375 14.0987 0.609375 13.6184V11.1301H1.65285V13.6184C1.65285 13.7789 1.71974 13.9261 1.85351 14.0599C1.98731 14.1936 2.13446 14.2605 2.29498 14.2605H4.78329V15.304H2.29498ZM4.62275 11.2906V4.70869H15.3786V11.2906H4.62275ZM5.66623 10.2472H14.3351V5.75216H5.66623V10.2472Z" fill="white"/>
</svg>
