<svg width="29" height="29" viewBox="0 0 29 29" fill="none" xmlns="http://www.w3.org/2000/svg">
<path d="M14.3359 22.3335V5.00018M14.3359 5.00018C14.3359 4.38661 14.477 3.78126 14.7484 3.23096C15.0197 2.68066 15.4141 2.20016 15.9008 1.82664C16.3876 1.45311 16.9538 1.19657 17.5555 1.07687C18.1573 0.95716 18.7786 0.977496 19.3712 1.1363C19.9639 1.29511 20.5121 1.58812 20.9734 1.99268C21.4347 2.39724 21.7967 2.9025 22.0315 3.46937C22.2663 4.03623 22.3675 4.64952 22.3274 5.26177C22.2872 5.87402 22.1067 6.46883 21.7999 7.00018M14.3359 5.00018C14.336 4.38661 14.1948 3.78126 13.9235 3.23096C13.6521 2.68066 13.2578 2.20016 12.771 1.82664C12.2843 1.45311 11.7181 1.19657 11.1163 1.07687C10.5146 0.95716 9.89331 0.977496 9.30065 1.1363C8.70799 1.29511 8.15981 1.58812 7.69851 1.99268C7.23721 2.39724 6.87516 2.9025 6.64038 3.46937C6.40559 4.03623 6.30436 4.64952 6.34451 5.26177C6.38467 5.87402 6.56513 6.46883 6.87194 7.00018M18.3359 15.6668C17.1823 15.3296 16.1691 14.6277 15.4479 13.6662C14.7268 12.7047 14.3367 11.5354 14.3359 10.3335C14.3352 11.5354 13.9451 12.7047 13.2239 13.6662C12.5028 14.6277 11.4895 15.3296 10.3359 15.6668" stroke="white" stroke-width="2" stroke-linecap="round" stroke-linejoin="round"/>
<path d="M22.3281 5.16797C23.1119 5.36948 23.8395 5.7467 24.4558 6.27105C25.0722 6.7954 25.5611 7.45313 25.8857 8.19443C26.2102 8.93573 26.3618 9.74116 26.3289 10.5497C26.2961 11.3583 26.0797 12.1488 25.6961 12.8613" stroke="white" stroke-width="2" stroke-linecap="round" stroke-linejoin="round"/>
<path d="M22.3359 22.3348C23.5099 22.3348 24.6511 21.9473 25.5825 21.2326C26.5139 20.5179 27.1834 19.5159 27.4873 18.3819C27.7912 17.2479 27.7124 16.0453 27.2631 14.9606C26.8139 13.876 26.0193 12.9699 25.0026 12.3828" stroke="white" stroke-width="2" stroke-linecap="round" stroke-linejoin="round"/>
<path d="M24.9534 21.6445C25.0468 22.3675 24.9911 23.102 24.7895 23.8026C24.588 24.5032 24.245 25.155 23.7817 25.7178C23.3184 26.2806 22.7446 26.7425 22.0958 27.0749C21.447 27.4073 20.7369 27.6031 20.0094 27.6503C19.282 27.6975 18.5525 27.5951 17.8662 27.3493C17.1799 27.1036 16.5512 26.7198 16.019 26.2215C15.4869 25.7233 15.0625 25.1213 14.7721 24.4526C14.4817 23.784 14.3315 23.0629 14.3307 22.3339C14.3299 23.0629 14.1797 23.784 13.8893 24.4526C13.599 25.1213 13.1746 25.7233 12.6424 26.2215C12.1102 26.7198 11.4816 27.1036 10.7952 27.3493C10.1089 27.5951 9.37949 27.6975 8.65203 27.6503C7.92456 27.6031 7.2145 27.4073 6.56569 27.0749C5.91687 26.7425 5.34309 26.2806 4.87977 25.7178C4.41645 25.155 4.07344 24.5032 3.87191 23.8026C3.67038 23.102 3.61462 22.3675 3.70806 21.6445" stroke="white" stroke-width="2" stroke-linecap="round" stroke-linejoin="round"/>
<path d="M6.3331 22.3348C5.15909 22.3348 4.01791 21.9473 3.08652 21.2326C2.15513 20.5179 1.48559 19.5159 1.18174 18.3819C0.877877 17.2479 0.956679 16.0453 1.40592 14.9606C1.85517 13.876 2.64974 12.9699 3.66643 12.3828" stroke="white" stroke-width="2" stroke-linecap="round" stroke-linejoin="round"/>
<path d="M6.33333 5.16797C5.5496 5.36948 4.822 5.7467 4.20564 6.27105C3.58928 6.7954 3.10032 7.45313 2.77579 8.19443C2.45126 8.93573 2.29968 9.74116 2.33252 10.5497C2.36536 11.3583 2.58176 12.1488 2.96533 12.8613" stroke="white" stroke-width="2" stroke-linecap="round" stroke-linejoin="round"/>
</svg>
