<svg width="20" height="20" viewBox="0 0 20 20" fill="none" xmlns="http://www.w3.org/2000/svg">
<path d="M18.3333 7.09935V3.31602C18.3333 2.14102 17.8 1.66602 16.475 1.66602H13.1083C11.7833 1.66602 11.25 2.14102 11.25 3.31602V7.09102C11.25 8.27435 11.7833 8.74102 13.1083 8.74102H16.475C17.8 8.74935 18.3333 8.27435 18.3333 7.09935Z" fill="#1A4A7A"/>
<path d="M18.3333 16.475V13.1083C18.3333 11.7833 17.8 11.25 16.475 11.25H13.1083C11.7833 11.25 11.25 11.7833 11.25 13.1083V16.475C11.25 17.8 11.7833 18.3333 13.1083 18.3333H16.475C17.8 18.3333 18.3333 17.8 18.3333 16.475Z" fill="#1A4A7A"/>
<path d="M8.7513 7.09935V3.31602C8.7513 2.14102 8.21797 1.66602 6.89297 1.66602H3.5263C2.2013 1.66602 1.66797 2.14102 1.66797 3.31602V7.09102C1.66797 8.27435 2.2013 8.74102 3.5263 8.74102H6.89297C8.21797 8.74935 8.7513 8.27435 8.7513 7.09935Z" fill="#1A4A7A"/>
<path d="M8.7513 16.475V13.1083C8.7513 11.7833 8.21797 11.25 6.89297 11.25H3.5263C2.2013 11.25 1.66797 11.7833 1.66797 13.1083V16.475C1.66797 17.8 2.2013 18.3333 3.5263 18.3333H6.89297C8.21797 18.3333 8.7513 17.8 8.7513 16.475Z" fill="#1A4A7A"/>
</svg>
