<svg width="32" height="32" viewBox="0 0 32 32" fill="none" xmlns="http://www.w3.org/2000/svg">
<path d="M22 16.0017C22.0014 14.8547 21.6294 13.7384 20.94 12.8217L23.6 10.1817C24.1199 10.399 24.6766 10.5144 25.24 10.5217C25.7496 10.5377 26.2573 10.4531 26.7342 10.2728C27.2111 10.0925 27.6478 9.8199 28.0192 9.47071C28.3907 9.12151 28.6898 8.70253 28.8992 8.2377C29.1087 7.77287 29.2245 7.27132 29.24 6.76172C29.24 5.70085 28.8186 4.68344 28.0684 3.93329C27.3183 3.18315 26.3009 2.76172 25.24 2.76172C24.1791 2.76172 23.1617 3.18315 22.4116 3.93329C21.6614 4.68344 21.24 5.70085 21.24 6.76172C21.2426 7.38037 21.4081 7.98743 21.72 8.52172L19.06 11.1817C18.125 10.6584 17.0715 10.383 16 10.3817C14.677 10.3635 13.385 10.7831 12.3252 11.5753C11.2654 12.3674 10.4971 13.4877 10.14 14.7617H8.76C8.45794 14.0148 7.93738 13.3765 7.26648 12.9305C6.59557 12.4844 5.8056 12.2513 5 12.2617C3.97418 12.2293 2.97731 12.6047 2.22762 13.3056C1.47794 14.0066 1.03652 14.976 1 16.0017C1.01552 16.5113 1.13132 17.0129 1.34078 17.4777C1.55025 17.9425 1.84927 18.3615 2.22075 18.7107C2.59224 19.0599 3.0289 19.3325 3.50578 19.5128C3.98266 19.6931 4.49041 19.7777 5 19.7617C5.8056 19.7721 6.59557 19.5391 7.26648 19.093C7.93738 18.6469 8.45794 18.0086 8.76 17.2617H10.14C10.4971 18.5358 11.2654 19.656 12.3252 20.4482C13.385 21.2403 14.677 21.66 16 21.6417C16.7644 21.6657 17.526 21.5388 18.2413 21.2683C18.9567 20.9978 19.6116 20.589 20.1689 20.0652C20.7261 19.5414 21.1746 18.9129 21.4888 18.2157C21.803 17.5185 21.9767 16.7661 22 16.0017ZM25.24 5.52172C25.6031 5.48828 25.9647 5.59993 26.2458 5.83228C26.5269 6.06463 26.7045 6.39878 26.74 6.76172C26.6817 7.1175 26.4989 7.44098 26.2241 7.67439C25.9493 7.90781 25.6005 8.03595 25.24 8.03595C24.8795 8.03595 24.5307 7.90781 24.2559 7.67439C23.9811 7.44098 23.7983 7.1175 23.74 6.76172C23.7804 6.40086 23.9594 6.06981 24.2393 5.83845C24.5192 5.6071 24.878 5.49353 25.24 5.52172ZM5 17.2617C4.63486 17.2896 4.27332 17.1733 3.99292 16.9378C3.71251 16.7022 3.53556 16.3662 3.5 16.0017C3.5404 15.6409 3.71943 15.3098 3.9993 15.0785C4.27917 14.8471 4.63798 14.7335 5 14.7617C5.36202 14.7335 5.72083 14.8471 6.0007 15.0785C6.28057 15.3098 6.4596 15.6409 6.5 16.0017C6.46444 16.3662 6.28749 16.7022 6.00708 16.9378C5.72668 17.1733 5.36514 17.2896 5 17.2617ZM16 19.1417C15.1205 19.1854 14.2593 18.88 13.6038 18.292C12.9484 17.7039 12.5516 16.8808 12.5 16.0017C12.5516 15.1243 12.949 14.3031 13.6051 13.7182C14.2612 13.1334 15.1224 12.8326 16 12.8817C16.8763 12.8379 17.7346 13.1405 18.3895 13.7243C19.0444 14.3081 19.4433 15.1262 19.5 16.0017C19.4433 16.8789 19.0451 17.6989 18.3908 18.286C17.7365 18.873 16.8782 19.1802 16 19.1417Z" fill="white"/>
<path d="M5 8.75975C5.56453 8.76342 6.12345 8.64754 6.64 8.41975L10.16 11.9997C10.6688 11.3183 11.2912 10.7297 12 10.2597L8.52 6.75975C8.83189 6.22546 8.99745 5.6184 9 4.99975C8.96348 3.97406 8.52206 3.00463 7.77238 2.30368C7.02269 1.60272 6.02582 1.22736 5 1.25975C3.97418 1.22736 2.97731 1.60272 2.22762 2.30368C1.47794 3.00463 1.03652 3.97406 1 4.99975C1.01552 5.50935 1.13132 6.0109 1.34078 6.47573C1.55025 6.94055 1.84927 7.35954 2.22075 7.70874C2.59224 8.05793 3.0289 8.33049 3.50578 8.51083C3.98266 8.69117 4.49041 8.77575 5 8.75975ZM5 3.75975C5.36202 3.73156 5.72083 3.84512 6.0007 4.07648C6.28057 4.30784 6.4596 4.63889 6.5 4.99975C6.46444 5.36422 6.28749 5.70026 6.00708 5.9358C5.72668 6.17134 5.36514 6.28764 5 6.25975C4.63486 6.28764 4.27332 6.17134 3.99292 5.9358C3.71251 5.70026 3.53556 5.36422 3.5 4.99975C3.5404 4.63889 3.71943 4.30784 3.9993 4.07648C4.27917 3.84512 4.63798 3.73156 5 3.75975ZM27 23.2597C26.4355 23.2561 25.8765 23.372 25.36 23.5997L21.84 19.9997C21.32 20.6614 20.691 21.2296 19.98 21.6797L23.46 25.1597C23.1542 25.6956 22.9955 26.3028 23 26.9197C23 27.9806 23.4214 28.998 24.1716 29.7482C24.9217 30.4983 25.9391 30.9197 27 30.9197C28.0609 30.9197 29.0783 30.4983 29.8284 29.7482C30.5786 28.998 31 27.9806 31 26.9197C30.9431 25.9082 30.4928 24.9591 29.7453 24.2752C28.9979 23.5912 28.0126 23.2268 27 23.2597ZM27 28.2597C26.6349 28.2876 26.2733 28.1713 25.9929 27.9358C25.7125 27.7003 25.5356 27.3642 25.5 26.9997C25.5583 26.644 25.7411 26.3205 26.0159 26.0871C26.2907 25.8537 26.6395 25.7255 27 25.7255C27.3605 25.7255 27.7093 25.8537 27.9841 26.0871C28.2589 26.3205 28.4417 26.644 28.5 26.9997C28.4644 27.3642 28.2875 27.7003 28.0071 27.9358C27.7267 28.1713 27.3651 28.2876 27 28.2597Z" fill="white"/>
</svg>
