<svg width="16" height="19" viewBox="0 0 16 19" fill="none" xmlns="http://www.w3.org/2000/svg">
<path d="M9.66667 18.011H1C0.734783 18.011 0.480429 17.9057 0.292893 17.7182C0.105357 17.5306 0 17.2763 0 17.011C0 16.7458 0.105357 16.4915 0.292893 16.3039C0.480429 16.1164 0.734783 16.011 1 16.011H9.66667C10.5487 16.0897 11.4265 15.8196 12.1119 15.2589C12.7972 14.6981 13.2357 13.8912 13.3333 13.011C13.2357 12.1309 12.7972 11.324 12.1119 10.7632C11.4265 10.2024 10.5487 9.93244 9.66667 10.011H5.66667C4.96598 10.0562 4.26328 9.96258 3.59887 9.73552C2.93446 9.50846 2.32143 9.15244 1.79494 8.68789C1.26845 8.22335 0.838871 7.65941 0.530851 7.02844C0.22283 6.39748 0.0424293 5.7119 0 5.01105C0.0424293 4.31019 0.22283 3.62461 0.530851 2.99365C0.838871 2.36268 1.26845 1.79875 1.79494 1.3342C2.32143 0.86965 2.93446 0.513632 3.59887 0.286573C4.26328 0.0595127 4.96598 -0.0341202 5.66667 0.0110465H13C13.2652 0.0110465 13.5196 0.116403 13.7071 0.30394C13.8946 0.491476 14 0.74583 14 1.01105C14 1.27626 13.8946 1.53062 13.7071 1.71815C13.5196 1.90569 13.2652 2.01105 13 2.01105H5.66667C4.78461 1.93244 3.90685 2.20244 3.22146 2.76321C2.53608 3.32397 2.09761 4.13089 2 5.01105C2.09761 5.8912 2.53608 6.69812 3.22146 7.25888C3.90685 7.81965 4.78461 8.08966 5.66667 8.01105H9.66667C10.3673 7.96588 11.0701 8.05951 11.7345 8.28657C12.3989 8.51363 13.0119 8.86965 13.5384 9.3342C14.0649 9.79875 14.4945 10.3627 14.8025 10.9936C15.1105 11.6246 15.2909 12.3102 15.3333 13.011C15.2909 13.7119 15.1105 14.3975 14.8025 15.0284C14.4945 15.6594 14.0649 16.2233 13.5384 16.6879C13.0119 17.1524 12.3989 17.5085 11.7345 17.7355C11.0701 17.9626 10.3673 18.0562 9.66667 18.011Z" fill="white"/>
</svg>
