<svg width="53" height="80" viewBox="0 0 53 80" fill="none" xmlns="http://www.w3.org/2000/svg">
<g clip-path="url(#clip0_445_4095)">
<mask id="path-1-inside-1_445_4095" fill="white">
<path d="M41.7835 4.45642V-2.0169C40.2601 -2.42909 38.8703 -3.24331 37.7542 -4.37747C36.6382 -5.51163 35.8353 -6.92562 35.4265 -8.47686C35.0177 -10.0281 35.0176 -11.6618 35.426 -13.2131C35.8344 -14.7644 36.637 -16.1786 37.7529 -17.313C38.5834 -18.1622 39.5703 -18.836 40.6568 -19.2958C41.7434 -19.7555 42.9084 -19.9922 44.0849 -19.9922C45.2614 -19.9922 46.4264 -19.7555 47.513 -19.2958C48.5996 -18.836 49.5864 -18.1622 50.417 -17.313C51.5526 -16.1591 52.364 -14.7161 52.7667 -13.1342C53.1695 -11.5523 53.1487 -9.88934 52.7068 -8.31837C52.2648 -6.74739 51.4177 -5.32586 50.2537 -4.20172C49.0896 -3.07758 47.6512 -2.29193 46.0881 -1.92654V4.20997L45.9511 4.14425C45.7077 4.07686 45.4598 4.02745 45.2095 3.99638C44.8765 3.97689 44.5428 3.97689 44.2099 3.99638H44.097C43.8273 3.99537 43.5579 4.0146 43.2909 4.05389C43.1055 4.05389 42.8798 4.13604 42.6299 4.20176C42.3551 4.26512 42.0855 4.35026 41.8238 4.45642H41.7593H41.7835ZM27.2733 18.8407L43.6133 9.51678L43.8149 9.43463C43.9841 9.37869 44.161 9.35095 44.3388 9.35248C44.4912 9.35086 44.643 9.3702 44.7903 9.40998C44.9191 9.43701 45.0403 9.49316 45.145 9.57428L61.3157 19.1117C61.7035 19.2632 62.0223 19.5559 62.2105 19.9332C62.3791 20.2624 62.4624 20.63 62.4523 21.0012V40.2322C62.4327 40.5478 62.3342 40.8531 62.1663 41.119C61.9985 41.385 61.7667 41.6028 61.493 41.7519L45.2498 51.3715C45.1326 51.4363 45.0081 51.4859 44.8789 51.5194C44.5555 51.6178 44.2109 51.6178 43.8874 51.5194C43.7282 51.473 43.5762 51.4038 43.436 51.314L26.8219 41.4562C26.5556 41.308 26.3299 41.0944 26.1652 40.8347C26.0005 40.575 25.902 40.2776 25.8788 39.9693V20.6315C25.8805 20.2205 26.0159 19.8217 26.2639 19.4976C26.5119 19.1736 26.8584 18.9425 27.2492 18.8407H27.2733ZM42.5896 46.6151V31.5655L29.5063 23.6381V38.7864L42.5735 46.6151H42.5896ZM58.849 23.8682L46.201 31.5737V46.6316L58.849 39.0328V23.8682ZM44.3388 13.2463L31.9972 20.7547L44.3953 28.3617L56.4225 20.9683L44.3388 13.2463ZM46.209 62.9709C47.7983 63.3723 49.2502 64.2072 50.4089 65.3861C51.2422 66.2325 51.9034 67.2382 52.3546 68.3455C52.8057 69.4528 53.038 70.6399 53.038 71.8389C53.038 73.0379 52.8057 74.225 52.3546 75.3323C51.9034 76.4397 51.2422 77.4453 50.4089 78.2917C49.5784 79.1409 48.5915 79.8147 47.5049 80.2745C46.4183 80.7342 45.2534 80.9709 44.0769 80.9709C42.9003 80.9709 41.7354 80.7342 40.6488 80.2745C39.5622 79.8147 38.5753 79.1409 37.7448 78.2917C36.9115 77.4453 36.2503 76.4397 35.7991 75.3323C35.348 74.225 35.1157 73.0379 35.1157 71.8389C35.1157 70.6399 35.348 69.4528 35.7991 68.3455C36.2503 67.2382 36.9115 66.2325 37.7448 65.3861C38.8945 64.2081 40.3385 63.3729 41.9205 62.9709V56.5633C42.0944 56.6359 42.272 56.6989 42.4525 56.7523L42.7589 56.8344C42.9646 56.8956 43.1749 56.9395 43.3876 56.9659C43.7235 57.0217 44.063 57.0519 44.4033 57.0562C44.7437 57.0523 45.0832 57.0221 45.419 56.9659C45.692 56.9275 45.9616 56.8671 46.2252 56.7851V62.9709H46.209ZM47.3698 68.4749C46.4917 67.591 45.3071 67.0953 44.0728 67.0953C42.8385 67.0953 41.6539 67.591 40.7758 68.4749C39.9079 69.3712 39.4213 70.5797 39.4213 71.8389C39.4213 73.0981 39.9079 74.3066 40.7758 75.2029C41.6539 76.0868 42.8385 76.5825 44.0728 76.5825C45.3071 76.5825 46.4917 76.0868 47.3698 75.2029C48.2416 74.3087 48.7309 73.0994 48.7309 71.8389C48.7309 70.5784 48.2416 69.3691 47.3698 68.4749ZM47.3698 -14.2488C46.4917 -15.1328 45.3071 -15.6285 44.0728 -15.6285C42.8385 -15.6285 41.6539 -15.1328 40.7758 -14.2488C39.9079 -13.3526 39.4213 -12.144 39.4213 -10.8849C39.4213 -9.62567 39.9079 -8.41713 40.7758 -7.52087C41.655 -6.6325 42.8428 -6.13359 44.0809 -6.13255C45.003 -6.1339 45.9041 -6.41359 46.6705 -6.93632C47.4368 -7.45905 48.034 -8.2014 48.3867 -9.06968C48.7394 -9.93796 48.8319 -10.8933 48.6523 -11.815C48.4728 -12.7368 48.0293 -13.5837 47.3779 -14.2488H47.3698ZM79.3566 41.9737C81.7335 41.9751 84.0126 42.9383 85.6927 44.6518C86.526 45.4981 87.1872 46.5038 87.6384 47.6111C88.0895 48.7184 88.3217 49.9056 88.3217 51.1046C88.3217 52.3035 88.0895 53.4907 87.6384 54.598C87.1872 55.7053 86.526 56.711 85.6927 57.5574C84.2806 58.996 82.4376 59.9131 80.456 60.1631C78.4743 60.413 76.4675 59.9816 74.7538 58.9372C73.0402 57.8928 71.7177 56.2952 70.9963 54.3978C70.2748 52.5004 70.1957 50.4119 70.7714 48.4635L65.5236 45.3747C65.9785 44.9393 66.3719 44.4417 66.6925 43.896C66.8447 43.6304 66.982 43.3561 67.1036 43.0745C67.2306 42.8101 67.3358 42.5353 67.418 42.253C67.494 42.0077 67.5559 41.7581 67.6034 41.5055L72.9641 44.66L73.0124 44.6025C74.695 42.8878 76.9771 41.9245 79.3566 41.9244V41.9737ZM82.6536 47.7242C81.9999 47.0615 81.1682 46.611 80.2635 46.4295C79.3588 46.248 78.4216 46.3437 77.5702 46.7044C76.7187 47.0652 75.9912 47.6748 75.4795 48.4565C74.9677 49.2381 74.6946 50.1567 74.6946 51.0964C74.6946 52.036 74.9677 52.9546 75.4795 53.7363C75.9912 54.5179 76.7187 55.1275 77.5702 55.4883C78.4216 55.849 79.3588 55.9447 80.2635 55.7632C81.1682 55.5817 81.9999 55.1312 82.6536 54.4686C83.5254 53.5744 84.0147 52.3651 84.0147 51.1046C84.0147 49.8441 83.5254 48.6348 82.6536 47.7406V47.7242ZM8.97447 41.9737C11.3045 41.9729 13.5429 42.8983 15.2138 44.5532L20.7277 41.2673L20.776 41.4644L20.905 41.9655C21.0033 42.2966 21.1301 42.6183 21.2839 42.9267C21.3719 43.1498 21.4799 43.3643 21.6063 43.5674C21.9294 44.1066 22.3196 44.6008 22.7671 45.0379L22.8155 45.0872L17.4951 48.217C18.1434 50.1726 18.1227 52.2943 17.4362 54.2363C16.7498 56.1784 15.4382 57.8262 13.7152 58.9114C11.9921 59.9966 9.95922 60.4551 7.94775 60.2122C5.93628 59.9693 4.06483 59.0393 2.63839 57.5738C1.38365 56.2951 0.529169 54.6659 0.182992 52.8924C-0.163185 51.1188 0.0144924 49.2804 0.693555 47.6098C1.37262 45.9391 2.52257 44.5111 3.99799 43.5065C5.47341 42.5018 7.20805 41.9656 8.98253 41.9655L8.97447 41.9737ZM12.2715 47.7242C11.394 46.8357 10.2074 46.3371 8.97044 46.3371C7.73353 46.3371 6.54684 46.8357 5.66939 47.7242C4.79954 48.6194 4.31158 49.8283 4.31158 51.0881C4.31158 52.348 4.79954 53.5569 5.66939 54.4521H5.64521C6.52471 55.3366 7.71063 55.8325 8.94626 55.8325C10.1819 55.8325 11.3678 55.3366 12.2473 54.4521C13.1196 53.5565 13.6091 52.3459 13.6091 51.084C13.6091 49.8222 13.1196 48.6115 12.2473 47.7159L12.2715 47.7242ZM79.3566 0.644714C81.1328 0.640808 82.8701 1.17474 84.348 2.17874C85.826 3.18275 86.9779 4.61156 87.6576 6.28386C88.3373 7.95617 88.5142 9.79656 88.1658 11.5715C87.8174 13.3464 86.9594 14.9758 85.7007 16.253C84.8683 17.1017 83.8799 17.775 82.792 18.2344C81.7042 18.6937 80.5382 18.9302 79.3606 18.9302C78.1831 18.9302 77.0171 18.6937 75.9292 18.2344C74.8413 17.775 73.853 17.1017 73.0205 16.253L72.8996 16.1462L67.5712 19.2678C67.423 18.5737 67.173 17.9062 66.8295 17.288C66.4653 16.609 65.9973 15.9934 65.443 15.4643L70.7473 12.3427C70.2891 10.7684 70.2577 9.09705 70.6565 7.50605C71.0554 5.91506 71.8695 4.46381 73.0124 3.30634C73.8433 2.45647 74.8308 1.78235 75.9182 1.32276C77.0055 0.863159 78.1713 0.627146 79.3485 0.628286L79.3566 0.644714ZM82.6536 6.39513C81.7765 5.5092 80.5915 5.01215 79.3566 5.01215C78.1216 5.01215 76.9367 5.5092 76.0596 6.39513C75.183 7.28731 74.6901 8.49781 74.6894 9.76032C74.6886 11.0228 75.18 12.2339 76.0555 13.1272C76.931 14.0205 78.1189 14.5228 79.3578 14.5235C80.5967 14.5243 81.7851 14.0235 82.6617 13.1313C83.0953 12.6896 83.4393 12.1652 83.6739 11.588C83.9086 11.0108 84.0294 10.3921 84.0294 9.76733C84.0294 9.14254 83.9086 8.52388 83.6739 7.94667C83.4393 7.36947 83.0953 6.84504 82.6617 6.40334L82.6536 6.39513ZM8.97447 0.644714C10.1535 0.638849 11.3219 0.872675 12.4113 1.33251C13.5006 1.79235 14.489 2.46896 15.3186 3.32276C16.1545 4.16628 16.8173 5.17085 17.2685 6.27798C17.7197 7.3851 17.9502 8.57265 17.9466 9.77144C17.9459 10.4963 17.862 11.2187 17.6967 11.9237L23.0009 15.2097C22.76 15.4209 22.5362 15.6517 22.3318 15.8997C21.8957 16.4078 21.5345 16.9778 21.2597 17.592L21.0421 18.0849C20.9453 18.3724 20.8566 18.6517 20.7841 18.9064L15.7136 15.7683C15.5904 15.9212 15.4585 16.0666 15.3186 16.2037C14.5063 17.126 13.5182 17.8703 12.4146 18.3911C11.311 18.9119 10.115 19.1984 8.8993 19.2332C7.6836 19.268 6.47366 19.0504 5.34313 18.5935C4.2126 18.1366 3.18512 17.4501 2.32324 16.5757C1.46135 15.7012 0.783085 14.6572 0.329718 13.5072C-0.123649 12.3572 -0.342633 11.1251 -0.313905 9.88612C-0.285177 8.6471 -0.00933841 7.42699 0.496822 6.30005C1.00298 5.17312 1.72888 4.16293 2.63033 3.33098C3.46116 2.48111 4.44866 1.807 5.53604 1.3474C6.62341 0.887804 7.78922 0.651789 8.96641 0.652929L8.97447 0.644714ZM12.2715 6.39513C11.392 5.51067 10.2061 5.01477 8.97044 5.01477C7.73481 5.01477 6.54889 5.51067 5.66939 6.39513H5.64521C4.7773 7.2914 4.29067 8.49993 4.29067 9.75912C4.29067 11.0183 4.7773 12.2268 5.64521 13.1231C6.29799 13.7902 7.13049 14.2448 8.03713 14.4291C8.94376 14.6135 9.88369 14.5192 10.7377 14.1585C11.5917 13.7977 12.3214 13.1865 12.8341 12.4026C13.3469 11.6186 13.6196 10.6971 13.6177 9.75501C13.6198 9.13174 13.5013 8.51416 13.2689 7.93762C13.0365 7.36109 12.6948 6.83693 12.2634 6.39513H12.2715Z"/>
</mask>
<path d="M41.7835 4.45642V-2.0169C40.2601 -2.42909 38.8703 -3.24331 37.7542 -4.37747C36.6382 -5.51163 35.8353 -6.92562 35.4265 -8.47686C35.0177 -10.0281 35.0176 -11.6618 35.426 -13.2131C35.8344 -14.7644 36.637 -16.1786 37.7529 -17.313C38.5834 -18.1622 39.5703 -18.836 40.6568 -19.2958C41.7434 -19.7555 42.9084 -19.9922 44.0849 -19.9922C45.2614 -19.9922 46.4264 -19.7555 47.513 -19.2958C48.5996 -18.836 49.5864 -18.1622 50.417 -17.313C51.5526 -16.1591 52.364 -14.7161 52.7667 -13.1342C53.1695 -11.5523 53.1487 -9.88934 52.7068 -8.31837C52.2648 -6.74739 51.4177 -5.32586 50.2537 -4.20172C49.0896 -3.07758 47.6512 -2.29193 46.0881 -1.92654V4.20997L45.9511 4.14425C45.7077 4.07686 45.4598 4.02745 45.2095 3.99638C44.8765 3.97689 44.5428 3.97689 44.2099 3.99638H44.097C43.8273 3.99537 43.5579 4.0146 43.2909 4.05389C43.1055 4.05389 42.8798 4.13604 42.6299 4.20176C42.3551 4.26512 42.0855 4.35026 41.8238 4.45642H41.7593H41.7835ZM27.2733 18.8407L43.6133 9.51678L43.8149 9.43463C43.9841 9.37869 44.161 9.35095 44.3388 9.35248C44.4912 9.35086 44.643 9.3702 44.7903 9.40998C44.9191 9.43701 45.0403 9.49316 45.145 9.57428L61.3157 19.1117C61.7035 19.2632 62.0223 19.5559 62.2105 19.9332C62.3791 20.2624 62.4624 20.63 62.4523 21.0012V40.2322C62.4327 40.5478 62.3342 40.8531 62.1663 41.119C61.9985 41.385 61.7667 41.6028 61.493 41.7519L45.2498 51.3715C45.1326 51.4363 45.0081 51.4859 44.8789 51.5194C44.5555 51.6178 44.2109 51.6178 43.8874 51.5194C43.7282 51.473 43.5762 51.4038 43.436 51.314L26.8219 41.4562C26.5556 41.308 26.3299 41.0944 26.1652 40.8347C26.0005 40.575 25.902 40.2776 25.8788 39.9693V20.6315C25.8805 20.2205 26.0159 19.8217 26.2639 19.4976C26.5119 19.1736 26.8584 18.9425 27.2492 18.8407H27.2733ZM42.5896 46.6151V31.5655L29.5063 23.6381V38.7864L42.5735 46.6151H42.5896ZM58.849 23.8682L46.201 31.5737V46.6316L58.849 39.0328V23.8682ZM44.3388 13.2463L31.9972 20.7547L44.3953 28.3617L56.4225 20.9683L44.3388 13.2463ZM46.209 62.9709C47.7983 63.3723 49.2502 64.2072 50.4089 65.3861C51.2422 66.2325 51.9034 67.2382 52.3546 68.3455C52.8057 69.4528 53.038 70.6399 53.038 71.8389C53.038 73.0379 52.8057 74.225 52.3546 75.3323C51.9034 76.4397 51.2422 77.4453 50.4089 78.2917C49.5784 79.1409 48.5915 79.8147 47.5049 80.2745C46.4183 80.7342 45.2534 80.9709 44.0769 80.9709C42.9003 80.9709 41.7354 80.7342 40.6488 80.2745C39.5622 79.8147 38.5753 79.1409 37.7448 78.2917C36.9115 77.4453 36.2503 76.4397 35.7991 75.3323C35.348 74.225 35.1157 73.0379 35.1157 71.8389C35.1157 70.6399 35.348 69.4528 35.7991 68.3455C36.2503 67.2382 36.9115 66.2325 37.7448 65.3861C38.8945 64.2081 40.3385 63.3729 41.9205 62.9709V56.5633C42.0944 56.6359 42.272 56.6989 42.4525 56.7523L42.7589 56.8344C42.9646 56.8956 43.1749 56.9395 43.3876 56.9659C43.7235 57.0217 44.063 57.0519 44.4033 57.0562C44.7437 57.0523 45.0832 57.0221 45.419 56.9659C45.692 56.9275 45.9616 56.8671 46.2252 56.7851V62.9709H46.209ZM47.3698 68.4749C46.4917 67.591 45.3071 67.0953 44.0728 67.0953C42.8385 67.0953 41.6539 67.591 40.7758 68.4749C39.9079 69.3712 39.4213 70.5797 39.4213 71.8389C39.4213 73.0981 39.9079 74.3066 40.7758 75.2029C41.6539 76.0868 42.8385 76.5825 44.0728 76.5825C45.3071 76.5825 46.4917 76.0868 47.3698 75.2029C48.2416 74.3087 48.7309 73.0994 48.7309 71.8389C48.7309 70.5784 48.2416 69.3691 47.3698 68.4749ZM47.3698 -14.2488C46.4917 -15.1328 45.3071 -15.6285 44.0728 -15.6285C42.8385 -15.6285 41.6539 -15.1328 40.7758 -14.2488C39.9079 -13.3526 39.4213 -12.144 39.4213 -10.8849C39.4213 -9.62567 39.9079 -8.41713 40.7758 -7.52087C41.655 -6.6325 42.8428 -6.13359 44.0809 -6.13255C45.003 -6.1339 45.9041 -6.41359 46.6705 -6.93632C47.4368 -7.45905 48.034 -8.2014 48.3867 -9.06968C48.7394 -9.93796 48.8319 -10.8933 48.6523 -11.815C48.4728 -12.7368 48.0293 -13.5837 47.3779 -14.2488H47.3698ZM79.3566 41.9737C81.7335 41.9751 84.0126 42.9383 85.6927 44.6518C86.526 45.4981 87.1872 46.5038 87.6384 47.6111C88.0895 48.7184 88.3217 49.9056 88.3217 51.1046C88.3217 52.3035 88.0895 53.4907 87.6384 54.598C87.1872 55.7053 86.526 56.711 85.6927 57.5574C84.2806 58.996 82.4376 59.9131 80.456 60.1631C78.4743 60.413 76.4675 59.9816 74.7538 58.9372C73.0402 57.8928 71.7177 56.2952 70.9963 54.3978C70.2748 52.5004 70.1957 50.4119 70.7714 48.4635L65.5236 45.3747C65.9785 44.9393 66.3719 44.4417 66.6925 43.896C66.8447 43.6304 66.982 43.3561 67.1036 43.0745C67.2306 42.8101 67.3358 42.5353 67.418 42.253C67.494 42.0077 67.5559 41.7581 67.6034 41.5055L72.9641 44.66L73.0124 44.6025C74.695 42.8878 76.9771 41.9245 79.3566 41.9244V41.9737ZM82.6536 47.7242C81.9999 47.0615 81.1682 46.611 80.2635 46.4295C79.3588 46.248 78.4216 46.3437 77.5702 46.7044C76.7187 47.0652 75.9912 47.6748 75.4795 48.4565C74.9677 49.2381 74.6946 50.1567 74.6946 51.0964C74.6946 52.036 74.9677 52.9546 75.4795 53.7363C75.9912 54.5179 76.7187 55.1275 77.5702 55.4883C78.4216 55.849 79.3588 55.9447 80.2635 55.7632C81.1682 55.5817 81.9999 55.1312 82.6536 54.4686C83.5254 53.5744 84.0147 52.3651 84.0147 51.1046C84.0147 49.8441 83.5254 48.6348 82.6536 47.7406V47.7242ZM8.97447 41.9737C11.3045 41.9729 13.5429 42.8983 15.2138 44.5532L20.7277 41.2673L20.776 41.4644L20.905 41.9655C21.0033 42.2966 21.1301 42.6183 21.2839 42.9267C21.3719 43.1498 21.4799 43.3643 21.6063 43.5674C21.9294 44.1066 22.3196 44.6008 22.7671 45.0379L22.8155 45.0872L17.4951 48.217C18.1434 50.1726 18.1227 52.2943 17.4362 54.2363C16.7498 56.1784 15.4382 57.8262 13.7152 58.9114C11.9921 59.9966 9.95922 60.4551 7.94775 60.2122C5.93628 59.9693 4.06483 59.0393 2.63839 57.5738C1.38365 56.2951 0.529169 54.6659 0.182992 52.8924C-0.163185 51.1188 0.0144924 49.2804 0.693555 47.6098C1.37262 45.9391 2.52257 44.5111 3.99799 43.5065C5.47341 42.5018 7.20805 41.9656 8.98253 41.9655L8.97447 41.9737ZM12.2715 47.7242C11.394 46.8357 10.2074 46.3371 8.97044 46.3371C7.73353 46.3371 6.54684 46.8357 5.66939 47.7242C4.79954 48.6194 4.31158 49.8283 4.31158 51.0881C4.31158 52.348 4.79954 53.5569 5.66939 54.4521H5.64521C6.52471 55.3366 7.71063 55.8325 8.94626 55.8325C10.1819 55.8325 11.3678 55.3366 12.2473 54.4521C13.1196 53.5565 13.6091 52.3459 13.6091 51.084C13.6091 49.8222 13.1196 48.6115 12.2473 47.7159L12.2715 47.7242ZM79.3566 0.644714C81.1328 0.640808 82.8701 1.17474 84.348 2.17874C85.826 3.18275 86.9779 4.61156 87.6576 6.28386C88.3373 7.95617 88.5142 9.79656 88.1658 11.5715C87.8174 13.3464 86.9594 14.9758 85.7007 16.253C84.8683 17.1017 83.8799 17.775 82.792 18.2344C81.7042 18.6937 80.5382 18.9302 79.3606 18.9302C78.1831 18.9302 77.0171 18.6937 75.9292 18.2344C74.8413 17.775 73.853 17.1017 73.0205 16.253L72.8996 16.1462L67.5712 19.2678C67.423 18.5737 67.173 17.9062 66.8295 17.288C66.4653 16.609 65.9973 15.9934 65.443 15.4643L70.7473 12.3427C70.2891 10.7684 70.2577 9.09705 70.6565 7.50605C71.0554 5.91506 71.8695 4.46381 73.0124 3.30634C73.8433 2.45647 74.8308 1.78235 75.9182 1.32276C77.0055 0.863159 78.1713 0.627146 79.3485 0.628286L79.3566 0.644714ZM82.6536 6.39513C81.7765 5.5092 80.5915 5.01215 79.3566 5.01215C78.1216 5.01215 76.9367 5.5092 76.0596 6.39513C75.183 7.28731 74.6901 8.49781 74.6894 9.76032C74.6886 11.0228 75.18 12.2339 76.0555 13.1272C76.931 14.0205 78.1189 14.5228 79.3578 14.5235C80.5967 14.5243 81.7851 14.0235 82.6617 13.1313C83.0953 12.6896 83.4393 12.1652 83.6739 11.588C83.9086 11.0108 84.0294 10.3921 84.0294 9.76733C84.0294 9.14254 83.9086 8.52388 83.6739 7.94667C83.4393 7.36947 83.0953 6.84504 82.6617 6.40334L82.6536 6.39513ZM8.97447 0.644714C10.1535 0.638849 11.3219 0.872675 12.4113 1.33251C13.5006 1.79235 14.489 2.46896 15.3186 3.32276C16.1545 4.16628 16.8173 5.17085 17.2685 6.27798C17.7197 7.3851 17.9502 8.57265 17.9466 9.77144C17.9459 10.4963 17.862 11.2187 17.6967 11.9237L23.0009 15.2097C22.76 15.4209 22.5362 15.6517 22.3318 15.8997C21.8957 16.4078 21.5345 16.9778 21.2597 17.592L21.0421 18.0849C20.9453 18.3724 20.8566 18.6517 20.7841 18.9064L15.7136 15.7683C15.5904 15.9212 15.4585 16.0666 15.3186 16.2037C14.5063 17.126 13.5182 17.8703 12.4146 18.3911C11.311 18.9119 10.115 19.1984 8.8993 19.2332C7.6836 19.268 6.47366 19.0504 5.34313 18.5935C4.2126 18.1366 3.18512 17.4501 2.32324 16.5757C1.46135 15.7012 0.783085 14.6572 0.329718 13.5072C-0.123649 12.3572 -0.342633 11.1251 -0.313905 9.88612C-0.285177 8.6471 -0.00933841 7.42699 0.496822 6.30005C1.00298 5.17312 1.72888 4.16293 2.63033 3.33098C3.46116 2.48111 4.44866 1.807 5.53604 1.3474C6.62341 0.887804 7.78922 0.651789 8.96641 0.652929L8.97447 0.644714ZM12.2715 6.39513C11.392 5.51067 10.2061 5.01477 8.97044 5.01477C7.73481 5.01477 6.54889 5.51067 5.66939 6.39513H5.64521C4.7773 7.2914 4.29067 8.49993 4.29067 9.75912C4.29067 11.0183 4.7773 12.2268 5.64521 13.1231C6.29799 13.7902 7.13049 14.2448 8.03713 14.4291C8.94376 14.6135 9.88369 14.5192 10.7377 14.1585C11.5917 13.7977 12.3214 13.1865 12.8341 12.4026C13.3469 11.6186 13.6196 10.6971 13.6177 9.75501C13.6198 9.13174 13.5013 8.51416 13.2689 7.93762C13.0365 7.36109 12.6948 6.83693 12.2634 6.39513H12.2715Z" fill="#E9EBF8" stroke="#E9EBF8" stroke-width="14" mask="url(#path-1-inside-1_445_4095)"/>
</g>
<defs>
<clipPath id="clip0_445_4095">
<rect width="89.1683" height="100" fill="white" transform="translate(0 -20)"/>
</clipPath>
</defs>
</svg>
