<svg width="32" height="32" viewBox="0 0 32 32" fill="none" xmlns="http://www.w3.org/2000/svg">
<path fill-rule="evenodd" clip-rule="evenodd" d="M17.3307 17.3333C18.7452 17.3333 20.1018 17.8952 21.102 18.8954C22.1022 19.8956 22.6641 21.2522 22.6641 22.6667V25.3333C22.6641 25.687 22.5236 26.0261 22.2735 26.2761C22.0235 26.5262 21.6844 26.6667 21.3307 26.6667C20.9771 26.6667 20.638 26.5262 20.3879 26.2761C20.1379 26.0261 19.9974 25.687 19.9974 25.3333V22.6667C19.9974 21.9594 19.7164 21.2811 19.2163 20.781C18.7162 20.281 18.038 20 17.3307 20H7.9974C7.29015 20 6.61187 20.281 6.11178 20.781C5.61168 21.2811 5.33073 21.9594 5.33073 22.6667V25.3333C5.33073 25.687 5.19025 26.0261 4.9402 26.2761C4.69016 26.5262 4.35102 26.6667 3.9974 26.6667C3.64377 26.6667 3.30464 26.5262 3.05459 26.2761C2.80454 26.0261 2.66406 25.687 2.66406 25.3333V22.6667C2.66406 21.2522 3.22597 19.8956 4.22616 18.8954C5.22635 17.8952 6.58291 17.3333 7.9974 17.3333H17.3307ZM25.3307 17.3333C26.3916 17.3333 27.409 17.7548 28.1592 18.5049C28.9093 19.2551 29.3307 20.2725 29.3307 21.3333V24C29.3307 24.3536 29.1903 24.6928 28.9402 24.9428C28.6902 25.1929 28.351 25.3333 27.9974 25.3333C27.6438 25.3333 27.3046 25.1929 27.0546 24.9428C26.8045 24.6928 26.6641 24.3536 26.6641 24V21.3333C26.6641 20.9797 26.5236 20.6406 26.2735 20.3905C26.0235 20.1405 25.6843 20 25.3307 20H23.4427C22.9815 18.9436 22.2543 18.0248 21.3321 17.3333H25.3307ZM12.6641 4C14.2554 4 15.7815 4.63214 16.9067 5.75736C18.0319 6.88258 18.6641 8.4087 18.6641 10C18.6641 11.5913 18.0319 13.1174 16.9067 14.2426C15.7815 15.3679 14.2554 16 12.6641 16C11.0728 16 9.54664 15.3679 8.42142 14.2426C7.2962 13.1174 6.66406 11.5913 6.66406 10C6.66406 8.4087 7.2962 6.88258 8.42142 5.75736C9.54664 4.63214 11.0728 4 12.6641 4ZM23.9974 8C25.0583 8 26.0757 8.42143 26.8258 9.17157C27.576 9.92172 27.9974 10.9391 27.9974 12C27.9974 13.0609 27.576 14.0783 26.8258 14.8284C26.0757 15.5786 25.0583 16 23.9974 16C22.9365 16 21.9191 15.5786 21.169 14.8284C20.4188 14.0783 19.9974 13.0609 19.9974 12C19.9974 10.9391 20.4188 9.92172 21.169 9.17157C21.9191 8.42143 22.9365 8 23.9974 8ZM12.6641 6.66667C11.78 6.66667 10.9322 7.01786 10.307 7.64298C9.68192 8.2681 9.33073 9.11594 9.33073 10C9.33073 10.8841 9.68192 11.7319 10.307 12.357C10.9322 12.9821 11.78 13.3333 12.6641 13.3333C13.5481 13.3333 14.396 12.9821 15.0211 12.357C15.6462 11.7319 15.9974 10.8841 15.9974 10C15.9974 9.11594 15.6462 8.2681 15.0211 7.64298C14.396 7.01786 13.5481 6.66667 12.6641 6.66667ZM23.9974 10.6667C23.6438 10.6667 23.3046 10.8071 23.0546 11.0572C22.8045 11.3072 22.6641 11.6464 22.6641 12C22.6641 12.3536 22.8045 12.6928 23.0546 12.9428C23.3046 13.1929 23.6438 13.3333 23.9974 13.3333C24.351 13.3333 24.6902 13.1929 24.9402 12.9428C25.1903 12.6928 25.3307 12.3536 25.3307 12C25.3307 11.6464 25.1903 11.3072 24.9402 11.0572C24.6902 10.8071 24.351 10.6667 23.9974 10.6667Z" fill="white"/>
</svg>
