<svg width="32" height="32" viewBox="0 0 32 32" fill="none" xmlns="http://www.w3.org/2000/svg">
<path d="M21.5 17.5L27 12M14.5 13.5L18.5 17.5M5 20L11.5 13.5" stroke="white" stroke-linecap="round" stroke-linejoin="round"/>
<path d="M28.5 12C29.3284 12 30 11.3284 30 10.5C30 9.67157 29.3284 9 28.5 9C27.6716 9 27 9.67157 27 10.5C27 11.3284 27.6716 12 28.5 12Z" stroke="white" stroke-linecap="round" stroke-linejoin="round"/>
<path d="M20 20.5C20.8284 20.5 21.5 19.8284 21.5 19C21.5 18.1716 20.8284 17.5 20 17.5C19.1716 17.5 18.5 18.1716 18.5 19C18.5 19.8284 19.1716 20.5 20 20.5Z" stroke="white" stroke-linecap="round" stroke-linejoin="round"/>
<path d="M13 13.5C13.8284 13.5 14.5 12.8284 14.5 12C14.5 11.1716 13.8284 10.5 13 10.5C12.1716 10.5 11.5 11.1716 11.5 12C11.5 12.8284 12.1716 13.5 13 13.5Z" stroke="white" stroke-linecap="round" stroke-linejoin="round"/>
<path d="M3.5 23C4.32843 23 5 22.3284 5 21.5C5 20.6716 4.32843 20 3.5 20C2.67157 20 2 20.6716 2 21.5C2 22.3284 2.67157 23 3.5 23Z" stroke="white" stroke-linecap="round" stroke-linejoin="round"/>
</svg>
