<svg width="76" height="76" viewBox="0 0 76 76" fill="none" xmlns="http://www.w3.org/2000/svg">
<path d="M52.3677 14.7942C49.9826 16.4946 47.0638 17.4948 43.9115 17.4948C35.8573 17.4948 29.3281 10.9656 29.3281 2.91146C29.3281 -5.14269 35.8573 -11.6719 43.9115 -11.6719C49.1322 -11.6719 53.7123 -8.92847 56.2886 -4.80462M20.9948 63.6913H31.871C33.2891 63.6913 34.6985 63.86 36.0732 64.1975L47.5652 66.9901C50.0587 67.5976 52.6564 67.6567 55.1759 67.1673L67.8822 64.6953C71.2387 64.0414 74.3264 62.4342 76.7462 60.0802L85.736 51.3353C88.3033 48.8421 88.3033 44.7966 85.736 42.2992C83.4246 40.0508 79.7645 39.7977 77.1495 41.7044L66.6723 49.3484C65.1718 50.4452 63.3461 51.0358 61.4683 51.0358H51.351L57.7909 51.0355C61.4206 51.0355 64.3609 48.1753 64.3609 44.6444V43.3662C64.3609 40.4344 62.3096 37.878 59.3868 37.1693L49.4473 34.7521C47.8297 34.3597 46.1731 34.1615 44.5079 34.1615C40.4878 34.1615 33.211 37.4899 33.211 37.4899L20.9948 42.5985M79.3281 7.07813C79.3281 15.1323 72.799 21.6615 64.7448 21.6615C56.6906 21.6615 50.1615 15.1323 50.1615 7.07813C50.1615 -0.976027 56.6906 -7.50521 64.7448 -7.50521C72.799 -7.50521 79.3281 -0.976027 79.3281 7.07813ZM4.32813 40.8281L4.32813 64.9948C4.32812 67.3283 4.32812 68.4951 4.78226 69.3864C5.18174 70.1704 5.81916 70.8078 6.60316 71.2073C7.49446 71.6615 8.66124 71.6615 10.9948 71.6615H14.3281C16.6617 71.6615 17.8285 71.6615 18.7198 71.2073C19.5038 70.8079 20.1412 70.1704 20.5407 69.3864C20.9948 68.4951 20.9948 67.3283 20.9948 64.9948V40.8281C20.9948 38.4946 20.9948 37.3278 20.5407 36.4365C20.1412 35.6525 19.5038 35.0151 18.7198 34.6156C17.8285 34.1615 16.6617 34.1615 14.3281 34.1615L10.9948 34.1615C8.66124 34.1615 7.49446 34.1615 6.60317 34.6156C5.81916 35.0151 5.18174 35.6525 4.78226 36.4365C4.32813 37.3278 4.32813 38.4946 4.32813 40.8281Z" stroke="#E9EBF8" stroke-width="7" stroke-linecap="round" stroke-linejoin="round"/>
</svg>
