<svg width="72" height="72" viewBox="0 0 72 72" fill="none" xmlns="http://www.w3.org/2000/svg">
<rect width="72" height="72" rx="8" fill="#151C36"/>
<path d="M36 23.3341V36.0008M36 36.0008L47.3333 29.7044M36 36.0008L24.6667 29.7044M36 36.0008V48.6674M47.3333 42.2971L37.036 36.5763C36.6579 36.3663 36.4688 36.2612 36.2686 36.22C36.0914 36.1836 35.9086 36.1836 35.7314 36.22C35.5312 36.2612 35.3421 36.3663 34.964 36.5763L24.6667 42.2971M48 41.4122V30.5894C48 30.1325 48 29.9041 47.9327 29.7003C47.8731 29.5201 47.7758 29.3547 47.6472 29.2151C47.5018 29.0573 47.3021 28.9464 46.9027 28.7245L37.036 23.243C36.6579 23.0329 36.4688 22.9279 36.2686 22.8867C36.0914 22.8503 35.9086 22.8503 35.7314 22.8867C35.5312 22.9279 35.3421 23.0329 34.964 23.243L25.0973 28.7245C24.6979 28.9464 24.4982 29.0573 24.3528 29.2151C24.2242 29.3547 24.1269 29.5201 24.0673 29.7003C24 29.9041 24 30.1325 24 30.5894V41.4122C24 41.869 24 42.0975 24.0673 42.3012C24.1269 42.4814 24.2242 42.6469 24.3528 42.7865C24.4982 42.9442 24.6979 43.0552 25.0973 43.277L34.964 48.7585C35.3421 48.9686 35.5312 49.0736 35.7314 49.1148C35.9086 49.1513 36.0914 49.1513 36.2686 49.1148C36.4688 49.0736 36.6579 48.9686 37.036 48.7585L46.9027 43.277C47.3021 43.0552 47.5018 42.9442 47.6472 42.7865C47.7758 42.6469 47.8731 42.4814 47.9327 42.3012C48 42.0975 48 41.869 48 41.4122Z" stroke="white" stroke-width="2" stroke-linecap="round" stroke-linejoin="round"/>
</svg>
