<svg width="32" height="32" viewBox="0 0 32 32" fill="none" xmlns="http://www.w3.org/2000/svg">
<path d="M15.9988 21.3346H16.0094M15.9988 13.3346V17.3346M14.0988 6.95726L4.6881 22.6679C4.49421 23.004 4.39165 23.3849 4.39063 23.7729C4.38961 24.1609 4.49016 24.5423 4.68229 24.8794C4.87441 25.2165 5.15142 25.4974 5.48577 25.6942C5.82012 25.891 6.20016 25.9969 6.5881 26.0013H25.4094C25.7975 25.9973 26.1778 25.8916 26.5124 25.6949C26.847 25.4982 27.1242 25.2173 27.3164 24.8801C27.5086 24.5429 27.6091 24.1612 27.6079 23.7731C27.6066 23.3849 27.5038 23.0039 27.3094 22.6679L17.9001 6.95726C17.7022 6.6305 17.4234 6.3603 17.0905 6.17277C16.7577 5.98524 16.3821 5.88672 16.0001 5.88672C15.6181 5.88672 15.2425 5.98524 14.9097 6.17277C14.5769 6.3603 14.298 6.6305 14.1001 6.95726" stroke="white" stroke-width="1.5" stroke-miterlimit="10" stroke-linecap="round" stroke-linejoin="round"/>
</svg>
