<svg width="22" height="22" viewBox="0 0 22 22" fill="none" xmlns="http://www.w3.org/2000/svg">
<path d="M3 14.5C2.46957 14.5 1.96086 14.2893 1.58579 13.9142C1.21071 13.5391 1 13.0304 1 12.5C1 11.9696 1.21071 11.4609 1.58579 11.0858C1.96086 10.7107 2.46957 10.5 3 10.5M19 14.5C19.5304 14.5 20.0391 14.2893 20.4142 13.9142C20.7893 13.5391 21 13.0304 21 12.5C21 11.9696 20.7893 11.4609 20.4142 11.0858C20.0391 10.7107 19.5304 10.5 19 10.5" stroke="#1A4A7A" stroke-width="1.5" stroke-linecap="round" stroke-linejoin="round"/>
<path d="M6 6V3M16 6V3" stroke="#1A4A7A" stroke-width="1.5" stroke-linejoin="round"/>
<path d="M6 3C6.55228 3 7 2.55228 7 2C7 1.44772 6.55228 1 6 1C5.44772 1 5 1.44772 5 2C5 2.55228 5.44772 3 6 3Z" stroke="#1A4A7A" stroke-width="1.5" stroke-linejoin="round"/>
<path d="M16 3C16.5523 3 17 2.55228 17 2C17 1.44772 16.5523 1 16 1C15.4477 1 15 1.44772 15 2C15 2.55228 15.4477 3 16 3Z" stroke="#1A4A7A" stroke-width="1.5" stroke-linejoin="round"/>
<path d="M12.5 6H9.5C6.672 6 5.257 6 4.379 6.909C3.501 7.818 3.5 9.281 3.5 12.207C3.5 15.133 3.5 16.596 4.379 17.505C5.257 18.414 6.672 18.414 9.5 18.414H10.525C11.317 18.414 11.596 18.577 12.142 19.171C12.745 19.828 13.679 20.705 14.524 20.909C15.725 21.199 15.86 20.798 15.592 19.653C15.516 19.327 15.325 18.806 15.526 18.502C15.639 18.332 15.826 18.29 16.201 18.206C16.792 18.074 17.28 17.858 17.621 17.505C18.5 16.595 18.5 15.133 18.5 12.207C18.5 9.281 18.5 7.818 17.621 6.909C16.743 6 15.328 6 12.5 6Z" stroke="#1A4A7A" stroke-width="1.5" stroke-linejoin="round"/>
<path d="M8.5 14C9.07 14.607 9.978 15 11 15C12.022 15 12.93 14.607 13.5 14" stroke="#1A4A7A" stroke-width="1.5" stroke-linecap="round" stroke-linejoin="round"/>
<path d="M8.009 10H8M14.009 10H14" stroke="#1A4A7A" stroke-width="2" stroke-linecap="round" stroke-linejoin="round"/>
</svg>
