<svg width="173" height="25" viewBox="0 0 173 25" fill="none" xmlns="http://www.w3.org/2000/svg">
<path d="M12.6307 11.9545C12.6307 13.3352 12.3814 14.5284 11.8828 15.5341C11.3842 16.5398 10.7003 17.3153 9.83097 17.8608C8.96165 18.4062 7.96875 18.679 6.85227 18.679C5.7358 18.679 4.7429 18.4062 3.87358 17.8608C3.00426 17.3153 2.32031 16.5398 1.82173 15.5341C1.32315 14.5284 1.07386 13.3352 1.07386 11.9545C1.07386 10.5739 1.32315 9.38068 1.82173 8.375C2.32031 7.36932 3.00426 6.59375 3.87358 6.0483C4.7429 5.50284 5.7358 5.23011 6.85227 5.23011C7.96875 5.23011 8.96165 5.50284 9.83097 6.0483C10.7003 6.59375 11.3842 7.36932 11.8828 8.375C12.3814 9.38068 12.6307 10.5739 12.6307 11.9545ZM11.0966 11.9545C11.0966 10.821 10.907 9.86435 10.5277 9.08452C10.1527 8.30469 9.64347 7.71449 9 7.31392C8.3608 6.91335 7.64489 6.71307 6.85227 6.71307C6.05966 6.71307 5.34162 6.91335 4.69815 7.31392C4.05895 7.71449 3.54972 8.30469 3.17045 9.08452C2.79545 9.86435 2.60795 10.821 2.60795 11.9545C2.60795 13.0881 2.79545 14.0447 3.17045 14.8246C3.54972 15.6044 4.05895 16.1946 4.69815 16.5952C5.34162 16.9957 6.05966 17.196 6.85227 17.196C7.64489 17.196 8.3608 16.9957 9 16.5952C9.64347 16.1946 10.1527 15.6044 10.5277 14.8246C10.907 14.0447 11.0966 13.0881 11.0966 11.9545ZM25.6871 5.40909H27.2723V14.0767C27.2723 14.9716 27.0614 15.7706 26.6395 16.4737C26.2219 17.1726 25.6317 17.7244 24.8689 18.1293C24.1061 18.5298 23.2112 18.7301 22.1842 18.7301C21.1572 18.7301 20.2624 18.5298 19.4996 18.1293C18.7368 17.7244 18.1445 17.1726 17.7226 16.4737C17.305 15.7706 17.0962 14.9716 17.0962 14.0767V5.40909H18.6814V13.9489C18.6814 14.5881 18.822 15.157 19.1033 15.6555C19.3845 16.1499 19.7851 16.5398 20.305 16.8253C20.8291 17.1065 21.4555 17.2472 22.1842 17.2472C22.9129 17.2472 23.5393 17.1065 24.0635 16.8253C24.5876 16.5398 24.9882 16.1499 25.2652 15.6555C25.5464 15.157 25.6871 14.5881 25.6871 13.9489V5.40909ZM32.238 18.5V5.40909H36.6613C37.684 5.40909 38.5235 5.58381 39.1797 5.93324C39.836 6.27841 40.3218 6.75355 40.6371 7.35866C40.9525 7.96378 41.1101 8.65199 41.1101 9.4233C41.1101 10.1946 40.9525 10.8786 40.6371 11.4751C40.3218 12.0717 39.8381 12.5405 39.1861 12.8814C38.5341 13.218 37.701 13.3864 36.6868 13.3864H33.1073V11.9545H36.6357C37.3346 11.9545 37.8971 11.8523 38.3232 11.6477C38.7536 11.4432 39.0647 11.1534 39.2564 10.7784C39.4525 10.3991 39.5505 9.94744 39.5505 9.4233C39.5505 8.89915 39.4525 8.44105 39.2564 8.04901C39.0604 7.65696 38.7472 7.3544 38.3168 7.14134C37.8864 6.92401 37.3175 6.81534 36.6101 6.81534H33.8232V18.5H32.238ZM38.3999 12.6193L41.6215 18.5H39.7806L36.6101 12.6193H38.3999ZM52.4141 5.40909H54.3062L58.755 16.2756H58.9085L63.3573 5.40909H65.2494V18.5H63.7664V8.55398H63.6386L59.5477 18.5H58.1158L54.0249 8.55398H53.8971V18.5H52.4141V5.40909ZM71.813 5.40909V18.5H70.2278V5.40909H71.813ZM83.9506 8.68182C83.8739 8.03409 83.5628 7.53125 83.0173 7.1733C82.4719 6.81534 81.8028 6.63636 81.0102 6.63636C80.4307 6.63636 79.9236 6.73011 79.4889 6.91761C79.0585 7.10511 78.7219 7.36293 78.479 7.69105C78.2403 8.01918 78.121 8.39204 78.121 8.80966C78.121 9.15909 78.2041 9.45952 78.3703 9.71094C78.5408 9.9581 78.7581 10.1648 79.0223 10.331C79.2865 10.4929 79.5635 10.6271 79.8533 10.7337C80.143 10.8359 80.4094 10.919 80.6523 10.983L81.9818 11.3409C82.3227 11.4304 82.702 11.554 83.1196 11.7116C83.5415 11.8693 83.9442 12.0845 84.3277 12.3572C84.7155 12.6257 85.0351 12.9709 85.2865 13.3928C85.5379 13.8146 85.6636 14.3324 85.6636 14.946C85.6636 15.6534 85.4783 16.2926 85.1075 16.8636C84.7411 17.4347 84.2041 17.8885 83.4967 18.2251C82.7936 18.5618 81.9392 18.7301 80.9335 18.7301C79.996 18.7301 79.1842 18.5788 78.4982 18.2763C77.8163 17.9737 77.2794 17.5518 76.8874 17.0107C76.4996 16.4695 76.2801 15.8409 76.229 15.125H77.8653C77.908 15.6193 78.0742 16.0284 78.3639 16.3523C78.658 16.6719 79.0287 16.9105 79.4761 17.0682C79.9278 17.2216 80.4136 17.2983 80.9335 17.2983C81.5386 17.2983 82.082 17.2003 82.5635 17.0043C83.045 16.804 83.4264 16.527 83.7077 16.1733C83.9889 15.8153 84.1295 15.3977 84.1295 14.9205C84.1295 14.4858 84.0081 14.1321 83.7652 13.8594C83.5223 13.5866 83.2027 13.3651 82.8064 13.1946C82.4101 13.0241 81.9818 12.875 81.5216 12.7472L79.9108 12.2869C78.8881 11.9929 78.0784 11.5732 77.4818 11.0277C76.8852 10.4822 76.5869 9.76847 76.5869 8.88636C76.5869 8.15341 76.7851 7.5142 77.1814 6.96875C77.582 6.41903 78.1189 5.9929 78.7922 5.69034C79.4697 5.38352 80.2261 5.23011 81.0614 5.23011C81.9051 5.23011 82.6551 5.38139 83.3114 5.68395C83.9676 5.98224 84.4875 6.39133 84.871 6.91122C85.2588 7.43111 85.4634 8.02131 85.4847 8.68182H83.9506ZM97.2291 8.68182C97.1524 8.03409 96.8413 7.53125 96.2958 7.1733C95.7504 6.81534 95.0814 6.63636 94.2887 6.63636C93.7092 6.63636 93.2021 6.73011 92.7674 6.91761C92.337 7.10511 92.0004 7.36293 91.7575 7.69105C91.5189 8.01918 91.3995 8.39204 91.3995 8.80966C91.3995 9.15909 91.4826 9.45952 91.6488 9.71094C91.8193 9.9581 92.0366 10.1648 92.3008 10.331C92.565 10.4929 92.842 10.6271 93.1318 10.7337C93.4216 10.8359 93.6879 10.919 93.9308 10.983L95.2603 11.3409C95.6012 11.4304 95.9805 11.554 96.3981 11.7116C96.82 11.8693 97.2227 12.0845 97.6062 12.3572C97.994 12.6257 98.3136 12.9709 98.565 13.3928C98.8164 13.8146 98.9422 14.3324 98.9422 14.946C98.9422 15.6534 98.7568 16.2926 98.386 16.8636C98.0196 17.4347 97.4826 17.8885 96.7752 18.2251C96.0721 18.5618 95.2177 18.7301 94.212 18.7301C93.2745 18.7301 92.4627 18.5788 91.7767 18.2763C91.0948 17.9737 90.5579 17.5518 90.1659 17.0107C89.7781 16.4695 89.5586 15.8409 89.5075 15.125H91.1439C91.1865 15.6193 91.3527 16.0284 91.6424 16.3523C91.9365 16.6719 92.3072 16.9105 92.7547 17.0682C93.2064 17.2216 93.6922 17.2983 94.212 17.2983C94.8172 17.2983 95.3605 17.2003 95.842 17.0043C96.3235 16.804 96.7049 16.527 96.9862 16.1733C97.2674 15.8153 97.4081 15.3977 97.4081 14.9205C97.4081 14.4858 97.2866 14.1321 97.0437 13.8594C96.8008 13.5866 96.4812 13.3651 96.0849 13.1946C95.6886 13.0241 95.2603 12.875 94.8001 12.7472L93.1893 12.2869C92.1666 11.9929 91.3569 11.5732 90.7603 11.0277C90.1637 10.4822 89.8654 9.76847 89.8654 8.88636C89.8654 8.15341 90.0636 7.5142 90.4599 6.96875C90.8605 6.41903 91.3974 5.9929 92.0707 5.69034C92.7483 5.38352 93.5047 5.23011 94.3399 5.23011C95.1836 5.23011 95.9336 5.38139 96.5899 5.68395C97.2461 5.98224 97.766 6.39133 98.1495 6.91122C98.5373 7.43111 98.7419 8.02131 98.7632 8.68182H97.2291ZM104.934 5.40909V18.5H103.349V5.40909H104.934ZM120.958 11.9545C120.958 13.3352 120.708 14.5284 120.21 15.5341C119.711 16.5398 119.027 17.3153 118.158 17.8608C117.289 18.4062 116.296 18.679 115.179 18.679C114.063 18.679 113.07 18.4062 112.201 17.8608C111.331 17.3153 110.647 16.5398 110.149 15.5341C109.65 14.5284 109.401 13.3352 109.401 11.9545C109.401 10.5739 109.65 9.38068 110.149 8.375C110.647 7.36932 111.331 6.59375 112.201 6.0483C113.07 5.50284 114.063 5.23011 115.179 5.23011C116.296 5.23011 117.289 5.50284 118.158 6.0483C119.027 6.59375 119.711 7.36932 120.21 8.375C120.708 9.38068 120.958 10.5739 120.958 11.9545ZM119.424 11.9545C119.424 10.821 119.234 9.86435 118.855 9.08452C118.48 8.30469 117.97 7.71449 117.327 7.31392C116.688 6.91335 115.972 6.71307 115.179 6.71307C114.387 6.71307 113.669 6.91335 113.025 7.31392C112.386 7.71449 111.877 8.30469 111.497 9.08452C111.122 9.86435 110.935 10.821 110.935 11.9545C110.935 13.0881 111.122 14.0447 111.497 14.8246C111.877 15.6044 112.386 16.1946 113.025 16.5952C113.669 16.9957 114.387 17.196 115.179 17.196C115.972 17.196 116.688 16.9957 117.327 16.5952C117.97 16.1946 118.48 15.6044 118.855 14.8246C119.234 14.0447 119.424 13.0881 119.424 11.9545ZM135.804 5.40909V18.5H134.27L127.136 8.22159H127.008V18.5H125.423V5.40909H126.957L134.116 15.7131H134.244V5.40909H135.804Z" fill="#6686A6"/>
<circle cx="155.5" cy="17" r="7.5" fill="#B8C7D6"/>
<path d="M165 8.5V5.5L168 2.5L169 4.5L171 5.5L168 8.5H165ZM165 8.5L161 12.4999M171 12.5C171 18.0228 166.523 22.5 161 22.5C155.477 22.5 151 18.0228 151 12.5C151 6.97715 155.477 2.5 161 2.5M166 12.5C166 15.2614 163.761 17.5 161 17.5C158.239 17.5 156 15.2614 156 12.5C156 9.73858 158.239 7.5 161 7.5" stroke="#2B2F38" stroke-width="2" stroke-linecap="round" stroke-linejoin="round"/>
</svg>
