<svg width="32" height="32" viewBox="0 0 32 32" fill="none" xmlns="http://www.w3.org/2000/svg">
<path d="M16 27.6654C15.7359 27.6619 15.4835 27.5554 15.2967 27.3687C15.1099 27.1819 15.0035 26.9295 15 26.6654V5.33203C15 5.06681 15.1054 4.81246 15.2929 4.62492C15.4804 4.43739 15.7348 4.33203 16 4.33203C16.2652 4.33203 16.5196 4.43739 16.7071 4.62492C16.8946 4.81246 17 5.06681 17 5.33203V26.6654C16.9965 26.9295 16.8901 27.1819 16.7033 27.3687C16.5165 27.5554 16.2641 27.6619 16 27.6654Z" fill="white"/>
<path d="M18.0026 24.9993H9.33594C9.07072 24.9993 8.81637 24.894 8.62883 24.7064C8.44129 24.5189 8.33594 24.2645 8.33594 23.9993C8.33594 23.7341 8.44129 23.4798 8.62883 23.2922C8.81637 23.1047 9.07072 22.9993 9.33594 22.9993H18.0026C18.8847 23.0779 19.7624 22.8079 20.4478 22.2472C21.1332 21.6864 21.5717 20.8795 21.6693 19.9993C21.5717 19.1192 21.1332 18.3123 20.4478 17.7515C19.7624 17.1907 18.8847 16.9207 18.0026 16.9993H14.0026C13.3019 17.0445 12.5992 16.9509 11.9348 16.7238C11.2704 16.4967 10.6574 16.1407 10.1309 15.6762C9.60439 15.2116 9.17481 14.6477 8.86679 14.0167C8.55877 13.3858 8.37837 12.7002 8.33594 11.9993C8.37837 11.2985 8.55877 10.6129 8.86679 9.98193C9.17481 9.35096 9.60439 8.78703 10.1309 8.32248C10.6574 7.85793 11.2704 7.50191 11.9348 7.27485C12.5992 7.04779 13.3019 6.95416 14.0026 6.99933H21.3359C21.6012 6.99933 21.8555 7.10468 22.043 7.29222C22.2306 7.47976 22.3359 7.73411 22.3359 7.99933C22.3359 8.26454 22.2306 8.5189 22.043 8.70643C21.8555 8.89397 21.6012 8.99933 21.3359 8.99933H14.0026C13.1205 8.92072 12.2428 9.19072 11.5574 9.75149C10.872 10.3123 10.4335 11.1192 10.3359 11.9993C10.4335 12.8795 10.872 13.6864 11.5574 14.2472C12.2428 14.8079 13.1205 15.0779 14.0026 14.9993H18.0026C18.7033 14.9542 19.406 15.0478 20.0704 15.2749C20.7348 15.5019 21.3478 15.8579 21.8743 16.3225C22.4008 16.787 22.8304 17.351 23.1384 17.9819C23.4464 18.6129 23.6268 19.2985 23.6693 19.9993C23.6268 20.7002 23.4464 21.3858 23.1384 22.0167C22.8304 22.6477 22.4008 23.2116 21.8743 23.6762C21.3478 24.1407 20.7348 24.4967 20.0704 24.7238C19.406 24.9509 18.7033 25.0445 18.0026 24.9993Z" fill="white"/>
</svg>
