<svg width="20" height="20" viewBox="0 0 20 20" fill="none" xmlns="http://www.w3.org/2000/svg">
<path d="M16.25 8.64258V16.25C16.25 16.7678 16.0669 17.2097 15.7008 17.5758C15.3347 17.9419 14.8928 18.125 14.375 18.125H5.625C5.10723 18.125 4.66529 17.9419 4.29917 17.5758C3.93306 17.2097 3.75 16.7678 3.75 16.25V3.75C3.75 3.23223 3.93306 2.79029 4.29917 2.42417C4.66529 2.05806 5.10723 1.875 5.625 1.875H9.48242C9.64812 1.87503 9.80752 1.90674 9.96061 1.97016C10.1137 2.03357 10.2488 2.12386 10.366 2.24102L15.884 7.75898C16.0011 7.87617 16.0914 8.0113 16.1548 8.16439C16.2183 8.31748 16.25 8.47688 16.25 8.64258Z" stroke="#6B7280" stroke-width="1.25" stroke-linejoin="round"/>
<path d="M10 2.1875V6.875C10 7.22018 10.122 7.51481 10.3661 7.75888C10.6102 8.00296 10.9048 8.125 11.25 8.125H15.9375M6.875 11.25H13.125M6.875 14.375H13.125" stroke="#6B7280" stroke-width="1.25" stroke-linecap="round" stroke-linejoin="round"/>
</svg>
