<svg width="19" height="22" viewBox="0 0 19 22" fill="none" xmlns="http://www.w3.org/2000/svg">
<path d="M6.66406 10.4984L8.66406 12.4984L13.1641 7.99841M17.6641 10.9984C17.6641 15.9068 12.3101 19.4768 10.3621 20.6133C10.1407 20.7424 10.03 20.807 9.87374 20.8405C9.7525 20.8665 9.57562 20.8665 9.45438 20.8405C9.29816 20.807 9.18746 20.7424 8.96607 20.6133C7.01802 19.4768 1.66406 15.9068 1.66406 10.9984V6.21601C1.66406 5.4165 1.66406 5.01674 1.79482 4.67311C1.91034 4.36955 2.09805 4.09868 2.34172 3.88394C2.61756 3.64084 2.99186 3.50048 3.74047 3.21975L9.10226 1.20908C9.31016 1.13112 9.41411 1.09214 9.52105 1.07669C9.6159 1.06298 9.71223 1.06298 9.80708 1.07669C9.91402 1.09214 10.018 1.13112 10.2259 1.20908L15.5877 3.21975C16.3363 3.50048 16.7106 3.64084 16.9864 3.88394C17.2301 4.09868 17.4178 4.36955 17.5333 4.67311C17.6641 5.01674 17.6641 5.4165 17.6641 6.21601V10.9984Z" stroke="white" stroke-width="2" stroke-linecap="round" stroke-linejoin="round"/>
</svg>
