<svg width="33" height="29" viewBox="0 0 33 29" fill="none" xmlns="http://www.w3.org/2000/svg">
<path d="M15.8745 27.4313C16.0792 27.4313 16.2889 27.3851 16.5036 27.2928C16.7183 27.2005 16.8919 27.0882 17.0243 26.9557L29.227 14.753C29.6203 14.3597 29.9238 13.9574 30.1375 13.546C30.3512 13.1346 30.4581 12.6831 30.4581 12.1915C30.4581 11.6938 30.3512 11.2107 30.1375 10.7422C29.9238 10.2736 29.6203 9.84569 29.227 9.4584L23.3574 3.58884C22.9701 3.19553 22.5723 2.90705 22.164 2.72343C21.7556 2.53983 21.3026 2.44803 20.8049 2.44803C20.3133 2.44803 19.8568 2.53983 19.4354 2.72343C19.0139 2.90705 18.6166 3.19553 18.2434 3.58884L16.8798 4.95238L19.7755 7.85703C20.0865 8.16206 20.3183 8.50923 20.4708 8.89853C20.6233 9.28782 20.6996 9.68314 20.6996 10.0845C20.6996 10.8992 20.4332 11.5729 19.9004 12.1057C19.3676 12.6385 18.6939 12.9049 17.8792 12.9049C17.4778 12.9049 17.086 12.8437 16.7037 12.7213C16.3215 12.5989 15.9778 12.3852 15.6728 12.0801L12.6778 9.09418L5.92028 15.8517C5.76175 16.0102 5.64286 16.1903 5.56361 16.392C5.48433 16.5937 5.44469 16.7969 5.44469 17.0015C5.44469 17.3708 5.56309 17.6753 5.79988 17.9151C6.03667 18.1549 6.33968 18.2748 6.70892 18.2748C6.9136 18.2748 7.1233 18.2286 7.33802 18.1363C7.55274 18.044 7.72632 17.9316 7.85877 17.7992L12.8193 12.8386L13.927 13.9464L8.97547 18.9069C8.81694 19.0654 8.69805 19.2455 8.6188 19.4472C8.53952 19.6489 8.49988 19.852 8.49988 20.0567C8.49988 20.4059 8.6233 20.7039 8.87013 20.9507C9.11694 21.1975 9.41493 21.3209 9.7641 21.3209C9.96878 21.3209 10.1785 21.2748 10.3932 21.1825C10.6079 21.0901 10.7815 20.9778 10.914 20.8454L16.2357 15.5326L17.3434 16.6403L12.0307 21.9621C11.8922 22.0945 11.7783 22.2681 11.689 22.4828C11.5997 22.6975 11.5551 22.9072 11.5551 23.1119C11.5551 23.4611 11.6785 23.7591 11.9253 24.0059C12.1721 24.2527 12.4701 24.3761 12.8193 24.3761C13.024 24.3761 13.2271 24.3365 13.4288 24.2572C13.6305 24.1779 13.8106 24.059 13.9691 23.9005L19.2909 18.5878L20.3985 19.6955L15.0768 25.0173C14.9183 25.1758 14.7994 25.3659 14.7201 25.5877C14.6409 25.8094 14.6013 26.0126 14.6013 26.1972C14.6013 26.5664 14.7312 26.8644 14.991 27.0912C15.2509 27.3179 15.5454 27.4313 15.8745 27.4313ZM15.8654 28.9965C15.0608 28.9965 14.372 28.7021 13.799 28.1131C13.2261 27.5241 12.9748 26.7972 13.045 25.9323C12.1581 25.9423 11.4196 25.6774 10.8297 25.1377C10.2397 24.5979 9.95974 23.8444 9.98985 22.8771C9.02262 22.8871 8.26058 22.6107 7.70373 22.0479C7.14688 21.485 6.89354 20.743 6.9437 19.8219C6.07279 19.832 5.34436 19.5871 4.75842 19.0875C4.17246 18.5878 3.87947 17.8925 3.87947 17.0015C3.87947 16.6002 3.95724 16.1983 4.11277 15.796C4.26827 15.3937 4.49854 15.04 4.80358 14.735L12.6778 6.86973L16.7203 10.9122C16.8527 11.0507 17.0163 11.1646 17.2109 11.2539C17.4056 11.3432 17.6253 11.3878 17.8701 11.3878C18.2052 11.3878 18.5012 11.2709 18.7581 11.0372C19.0149 10.8034 19.1434 10.4989 19.1434 10.1236C19.1434 9.87879 19.0987 9.65905 19.0094 9.46439C18.9201 9.26976 18.8062 9.10622 18.6678 8.97377L13.2828 3.58884C12.8955 3.19553 12.4927 2.90705 12.0743 2.72343C11.6559 2.53983 11.1979 2.44803 10.7002 2.44803C10.2086 2.44803 9.7621 2.53983 9.36075 2.72343C8.95943 2.90705 8.56211 3.19553 8.1688 3.58884L3.40392 8.36275C3.06878 8.69786 2.79787 9.09719 2.59118 9.56073C2.3845 10.0243 2.27514 10.5029 2.26311 10.9965C2.25106 11.3497 2.28115 11.6893 2.35339 12.0154C2.42565 12.3415 2.54004 12.648 2.69656 12.935L1.5106 14.121C1.24772 13.7016 1.04202 13.2184 0.893509 12.6716C0.745023 12.1248 0.676805 11.5664 0.688857 10.9965C0.700883 10.2861 0.843357 9.60536 1.11628 8.95421C1.38917 8.30302 1.77947 7.7236 2.28718 7.21592L7.02196 2.48113C7.56778 1.94132 8.1452 1.53997 8.75423 1.27709C9.36328 1.01424 10.022 0.882812 10.7303 0.882812C11.4387 0.882812 12.0924 1.01424 12.6914 1.27709C13.2904 1.53997 13.8598 1.94132 14.3996 2.48113L15.7631 3.84467L17.1267 2.48113C17.6725 1.94132 18.2449 1.53997 18.8439 1.27709C19.4429 1.01424 20.0965 0.882812 20.8049 0.882812C21.5133 0.882812 22.172 1.01424 22.781 1.27709C23.39 1.53997 23.9644 1.94132 24.5042 2.48113L30.3347 8.31157C30.8745 8.85136 31.2909 9.45737 31.5839 10.1296C31.8768 10.8019 32.0233 11.4922 32.0233 12.2005C32.0233 12.9089 31.8768 13.5626 31.5839 14.1616C31.2909 14.7606 30.8745 15.33 30.3347 15.8698L18.132 28.0634C17.8069 28.3885 17.4532 28.6253 17.071 28.7738C16.6887 28.9223 16.2868 28.9965 15.8654 28.9965Z" fill="white"/>
</svg>
