<svg width="72" height="72" viewBox="0 0 72 72" fill="none" xmlns="http://www.w3.org/2000/svg">
<rect width="72" height="72" rx="8" fill="#151C36"/>
<path d="M49.3346 34.7823V36.0089C49.333 38.8842 48.402 41.6818 46.6804 43.9847C44.9589 46.2876 42.539 47.9722 39.7818 48.7875C37.0245 49.6027 34.0776 49.5048 31.3806 48.5084C28.6835 47.512 26.3808 45.6704 24.8159 43.2584C23.251 40.8463 22.5077 37.993 22.6969 35.124C22.8861 32.255 23.9976 29.524 25.8657 27.3384C27.7338 25.1527 30.2583 23.6294 33.0629 22.9958C35.8674 22.3621 38.8017 22.652 41.428 23.8223M49.3346 25.3346L36.0013 38.6813L32.0013 34.6813" stroke="white" stroke-width="2" stroke-linecap="round" stroke-linejoin="round"/>
</svg>
