<svg width="156" height="23" viewBox="0 0 156 23" fill="none" xmlns="http://www.w3.org/2000/svg">
<path d="M12.6307 11.9545C12.6307 13.3352 12.3814 14.5284 11.8828 15.5341C11.3842 16.5398 10.7003 17.3153 9.83097 17.8608C8.96165 18.4062 7.96875 18.679 6.85227 18.679C5.7358 18.679 4.7429 18.4062 3.87358 17.8608C3.00426 17.3153 2.32031 16.5398 1.82173 15.5341C1.32315 14.5284 1.07386 13.3352 1.07386 11.9545C1.07386 10.5739 1.32315 9.38068 1.82173 8.375C2.32031 7.36932 3.00426 6.59375 3.87358 6.0483C4.7429 5.50284 5.7358 5.23011 6.85227 5.23011C7.96875 5.23011 8.96165 5.50284 9.83097 6.0483C10.7003 6.59375 11.3842 7.36932 11.8828 8.375C12.3814 9.38068 12.6307 10.5739 12.6307 11.9545ZM11.0966 11.9545C11.0966 10.821 10.907 9.86435 10.5277 9.08452C10.1527 8.30469 9.64347 7.71449 9 7.31392C8.3608 6.91335 7.64489 6.71307 6.85227 6.71307C6.05966 6.71307 5.34162 6.91335 4.69815 7.31392C4.05895 7.71449 3.54972 8.30469 3.17045 9.08452C2.79545 9.86435 2.60795 10.821 2.60795 11.9545C2.60795 13.0881 2.79545 14.0447 3.17045 14.8246C3.54972 15.6044 4.05895 16.1946 4.69815 16.5952C5.34162 16.9957 6.05966 17.196 6.85227 17.196C7.64489 17.196 8.3608 16.9957 9 16.5952C9.64347 16.1946 10.1527 15.6044 10.5277 14.8246C10.907 14.0447 11.0966 13.0881 11.0966 11.9545ZM25.6871 5.40909H27.2723V14.0767C27.2723 14.9716 27.0614 15.7706 26.6395 16.4737C26.2219 17.1726 25.6317 17.7244 24.8689 18.1293C24.1061 18.5298 23.2112 18.7301 22.1842 18.7301C21.1572 18.7301 20.2624 18.5298 19.4996 18.1293C18.7368 17.7244 18.1445 17.1726 17.7226 16.4737C17.305 15.7706 17.0962 14.9716 17.0962 14.0767V5.40909H18.6814V13.9489C18.6814 14.5881 18.822 15.157 19.1033 15.6555C19.3845 16.1499 19.7851 16.5398 20.305 16.8253C20.8291 17.1065 21.4555 17.2472 22.1842 17.2472C22.9129 17.2472 23.5393 17.1065 24.0635 16.8253C24.5876 16.5398 24.9882 16.1499 25.2652 15.6555C25.5464 15.157 25.6871 14.5881 25.6871 13.9489V5.40909ZM32.238 18.5V5.40909H36.6613C37.684 5.40909 38.5235 5.58381 39.1797 5.93324C39.836 6.27841 40.3218 6.75355 40.6371 7.35866C40.9525 7.96378 41.1101 8.65199 41.1101 9.4233C41.1101 10.1946 40.9525 10.8786 40.6371 11.4751C40.3218 12.0717 39.8381 12.5405 39.1861 12.8814C38.5341 13.218 37.701 13.3864 36.6868 13.3864H33.1073V11.9545H36.6357C37.3346 11.9545 37.8971 11.8523 38.3232 11.6477C38.7536 11.4432 39.0647 11.1534 39.2564 10.7784C39.4525 10.3991 39.5505 9.94744 39.5505 9.4233C39.5505 8.89915 39.4525 8.44105 39.2564 8.04901C39.0604 7.65696 38.7472 7.3544 38.3168 7.14134C37.8864 6.92401 37.3175 6.81534 36.6101 6.81534H33.8232V18.5H32.238ZM38.3999 12.6193L41.6215 18.5H39.7806L36.6101 12.6193H38.3999ZM52.9511 5.40909L56.8374 16.429H56.9908L60.8772 5.40909H62.5391L57.7323 18.5H56.096L51.2891 5.40909H52.9511ZM67.9634 5.40909V18.5H66.3782V5.40909H67.9634ZM80.101 8.68182C80.0243 8.03409 79.7132 7.53125 79.1677 7.1733C78.6223 6.81534 77.9532 6.63636 77.1606 6.63636C76.5811 6.63636 76.074 6.73011 75.6393 6.91761C75.2089 7.10511 74.8723 7.36293 74.6294 7.69105C74.3907 8.01918 74.2714 8.39204 74.2714 8.80966C74.2714 9.15909 74.3545 9.45952 74.5207 9.71094C74.6912 9.9581 74.9085 10.1648 75.1727 10.331C75.4369 10.4929 75.7139 10.6271 76.0037 10.7337C76.2934 10.8359 76.5598 10.919 76.8027 10.983L78.1322 11.3409C78.4731 11.4304 78.8524 11.554 79.27 11.7116C79.6919 11.8693 80.0946 12.0845 80.4781 12.3572C80.8659 12.6257 81.1855 12.9709 81.4369 13.3928C81.6883 13.8146 81.814 14.3324 81.814 14.946C81.814 15.6534 81.6287 16.2926 81.2579 16.8636C80.8914 17.4347 80.3545 17.8885 79.6471 18.2251C78.944 18.5618 78.0896 18.7301 77.0839 18.7301C76.1464 18.7301 75.3346 18.5788 74.6485 18.2763C73.9667 17.9737 73.4298 17.5518 73.0378 17.0107C72.65 16.4695 72.4305 15.8409 72.3794 15.125H74.0157C74.0583 15.6193 74.2245 16.0284 74.5143 16.3523C74.8083 16.6719 75.1791 16.9105 75.6265 17.0682C76.0782 17.2216 76.564 17.2983 77.0839 17.2983C77.689 17.2983 78.2324 17.2003 78.7139 17.0043C79.1954 16.804 79.5768 16.527 79.8581 16.1733C80.1393 15.8153 80.2799 15.3977 80.2799 14.9205C80.2799 14.4858 80.1585 14.1321 79.9156 13.8594C79.6727 13.5866 79.3531 13.3651 78.9568 13.1946C78.5605 13.0241 78.1322 12.875 77.672 12.7472L76.0612 12.2869C75.0385 11.9929 74.2288 11.5732 73.6322 11.0277C73.0356 10.4822 72.7373 9.76847 72.7373 8.88636C72.7373 8.15341 72.9355 7.5142 73.3318 6.96875C73.7324 6.41903 74.2693 5.9929 74.9426 5.69034C75.6201 5.38352 76.3765 5.23011 77.2118 5.23011C78.0555 5.23011 78.8055 5.38139 79.4618 5.68395C80.118 5.98224 80.6379 6.39133 81.0214 6.91122C81.4092 7.43111 81.6137 8.02131 81.6351 8.68182H80.101ZM87.8056 5.40909V18.5H86.2204V5.40909H87.8056ZM103.83 11.9545C103.83 13.3352 103.58 14.5284 103.082 15.5341C102.583 16.5398 101.899 17.3153 101.03 17.8608C100.16 18.4062 99.1676 18.679 98.0511 18.679C96.9346 18.679 95.9417 18.4062 95.0724 17.8608C94.2031 17.3153 93.5191 16.5398 93.0206 15.5341C92.522 14.5284 92.2727 13.3352 92.2727 11.9545C92.2727 10.5739 92.522 9.38068 93.0206 8.375C93.5191 7.36932 94.2031 6.59375 95.0724 6.0483C95.9417 5.50284 96.9346 5.23011 98.0511 5.23011C99.1676 5.23011 100.16 5.50284 101.03 6.0483C101.899 6.59375 102.583 7.36932 103.082 8.375C103.58 9.38068 103.83 10.5739 103.83 11.9545ZM102.295 11.9545C102.295 10.821 102.106 9.86435 101.727 9.08452C101.352 8.30469 100.842 7.71449 100.199 7.31392C99.5596 6.91335 98.8437 6.71307 98.0511 6.71307C97.2585 6.71307 96.5404 6.91335 95.897 7.31392C95.2578 7.71449 94.7485 8.30469 94.3693 9.08452C93.9943 9.86435 93.8068 10.821 93.8068 11.9545C93.8068 13.0881 93.9943 14.0447 94.3693 14.8246C94.7485 15.6044 95.2578 16.1946 95.897 16.5952C96.5404 16.9957 97.2585 17.196 98.0511 17.196C98.8437 17.196 99.5596 16.9957 100.199 16.5952C100.842 16.1946 101.352 15.6044 101.727 14.8246C102.106 14.0447 102.295 13.0881 102.295 11.9545ZM118.676 5.40909V18.5H117.142L110.008 8.22159H109.88V18.5H108.295V5.40909H109.829L116.988 15.7131H117.116V5.40909H118.676Z" fill="#6686A6"/>
<circle cx="138.5" cy="13" r="7.5" fill="#B8C7D6"/>
<path d="M150.91 7.62037C150.903 7.62037 150.895 7.62038 150.888 7.62041C149.091 7.62799 147.51 8.56123 146.602 9.99474H141.126V9.73713V8.78307C141.126 8.40131 140.815 8.09076 140.433 8.09076H139.009C138.628 8.09076 138.317 8.40135 138.317 8.78307V9.73713V9.99474H138.095C137.263 9.99474 136.586 9.31787 136.586 8.48588V6.24401C136.586 5.41202 137.263 4.73515 138.095 4.73515H152.318C153.15 4.73515 153.827 5.41202 153.827 6.24401V7.80549C153.827 7.96737 153.958 8.09858 154.12 8.09858C154.282 8.09858 154.413 7.96737 154.413 7.80549V6.24401C154.413 5.08882 153.473 4.14898 152.318 4.14898H149.199V2.84144C149.199 1.55039 148.148 0.5 146.857 0.5H143.556C142.265 0.5 141.214 1.55039 141.214 2.84144V4.14898H138.095C136.94 4.14898 136 5.08882 136 6.24401V15.137C136 16.2922 136.94 17.232 138.095 17.232H146.993C147.155 17.232 147.286 17.1008 147.286 16.9389C147.286 16.777 147.155 16.6458 146.993 16.6458H138.095C137.263 16.6458 136.586 15.969 136.586 15.137V9.93709C136.968 10.3335 137.503 10.5809 138.095 10.5809H138.317V10.8925C138.317 11.6636 138.944 12.2968 139.721 12.2968C140.493 12.2968 141.126 11.67 141.126 10.8925V10.5809H146.283C145.976 11.2468 145.815 11.9774 145.819 12.7326C145.83 15.5323 148.112 17.8019 150.909 17.8018C150.916 17.8018 150.924 17.8018 150.931 17.8018C153.744 17.7899 156.012 15.5035 156 12.6896C155.988 9.91799 153.745 7.62037 150.91 7.62037ZM147.406 4.14898H143.007V2.84144C143.007 2.53871 143.253 2.29238 143.556 2.29238H146.857C147.16 2.29238 147.406 2.53867 147.406 2.84144V4.14898H147.406ZM141.8 2.84144C141.8 1.87359 142.588 1.08617 143.556 1.08617H146.857C147.825 1.08617 148.612 1.87359 148.612 2.84144V4.14898H147.992V2.84144C147.992 2.21546 147.483 1.70621 146.857 1.70621H143.556C142.93 1.70621 142.421 2.21546 142.421 2.84144V4.14898H141.8V2.84144ZM139.009 8.67694H140.433C140.492 8.67694 140.54 8.72455 140.54 8.78307V9.44404H138.903V8.78307C138.903 8.72451 138.951 8.67694 139.009 8.67694ZM138.903 10.8925V10.0302H140.54V10.8925C140.54 11.3436 140.173 11.7106 139.721 11.7106C139.27 11.7106 138.903 11.3436 138.903 10.8925ZM150.928 17.2156C150.922 17.2157 150.915 17.2157 150.909 17.2157C148.434 17.2155 146.415 15.2074 146.405 12.7301C146.394 10.2452 148.395 8.21713 150.89 8.20658C150.897 8.20655 150.903 8.20655 150.91 8.20655C153.356 8.20655 155.403 10.1777 155.414 12.6921C155.424 15.1816 153.418 17.2051 150.928 17.2156Z" fill="black"/>
<path d="M150.91 8.71484C150.904 8.71484 150.898 8.71484 150.893 8.71488C148.903 8.72328 147.227 10.1949 146.952 12.1505C146.93 12.3109 147.041 12.459 147.202 12.4816C147.362 12.5038 147.51 12.3924 147.533 12.2321C147.767 10.5603 149.201 9.3082 150.895 9.30105C150.9 9.30105 150.905 9.30101 150.91 9.30101C152.762 9.30101 154.311 10.7932 154.319 12.6968C154.327 14.5814 152.809 16.1133 150.924 16.1212C150.919 16.1212 150.914 16.1213 150.909 16.1213C149.265 16.1213 147.936 14.9695 147.589 13.4941C147.552 13.3365 147.394 13.2389 147.237 13.2758C147.08 13.3128 146.982 13.4705 147.019 13.6282C147.432 15.3891 149.015 16.7075 150.909 16.7075C150.915 16.7075 150.921 16.7075 150.926 16.7074C153.135 16.6981 154.915 14.9033 154.906 12.6943C154.896 10.4964 153.105 8.71484 150.91 8.71484Z" fill="black"/>
<path d="M150 12.7166C150.002 13.2175 150.41 13.6235 150.911 13.6235H150.915C151.063 13.6229 151.206 13.5869 151.334 13.5198L152.074 14.2244C152.192 14.3365 152.377 14.3309 152.488 14.2142C152.6 14.0969 152.595 13.9114 152.478 13.7998L151.738 13.0953C151.793 12.9758 151.822 12.8446 151.822 12.7089C151.82 12.3093 151.56 11.9704 151.201 11.8494L151.194 10.1357C151.193 9.97422 151.062 9.84375 150.901 9.84375C150.901 9.84375 150.9 9.84375 150.9 9.84375C150.738 9.84437 150.607 9.97609 150.608 10.138L150.614 11.8517C150.256 11.9754 149.998 12.3168 150 12.7166ZM150.909 12.3881H150.911C151.089 12.3881 151.235 12.5328 151.235 12.7114C151.236 12.8908 151.092 13.0366 150.912 13.0374C150.912 13.0374 150.911 13.0374 150.911 13.0374C150.732 13.0374 150.587 12.8926 150.586 12.7141C150.585 12.5351 150.73 12.3888 150.909 12.3881Z" fill="black"/>
</svg>
